<mxfile host="app.diagrams.net" modified="2023-05-23T17:32:24.230Z" agent="Mozilla/5.0 (Windows NT 10.0; Win64; x64) AppleWebKit/537.36 (KHTML, like Gecko) Chrome/113.0.0.0 Safari/537.36" etag="kpqgpE9iTm439_mYWHks" version="21.3.3" type="device" pages="2">
  <diagram name="Page-1" id="e7e014a7-5840-1c2e-5031-d8a46d1fe8dd">
    <mxGraphModel dx="1232" dy="648" grid="1" gridSize="10" guides="1" tooltips="1" connect="1" arrows="1" fold="1" page="1" pageScale="1" pageWidth="1169" pageHeight="826" background="none" math="0" shadow="0">
      <root>
        <mxCell id="0" />
        <mxCell id="1" parent="0" />
        <mxCell id="2" value="ADMIN" style="swimlane;whiteSpace=wrap" parent="1" vertex="1">
          <mxGeometry x="164.5" y="128" width="325.5" height="570" as="geometry" />
        </mxCell>
        <mxCell id="51_Ou17uXI36368K1XmT-45" style="edgeStyle=orthogonalEdgeStyle;rounded=0;orthogonalLoop=1;jettySize=auto;html=1;entryX=0.5;entryY=0;entryDx=0;entryDy=0;strokeWidth=2;" edge="1" parent="2" source="51_Ou17uXI36368K1XmT-42" target="51_Ou17uXI36368K1XmT-43">
          <mxGeometry relative="1" as="geometry" />
        </mxCell>
        <mxCell id="51_Ou17uXI36368K1XmT-42" value="Mulai" style="strokeWidth=2;html=1;shape=mxgraph.flowchart.terminator;whiteSpace=wrap;" vertex="1" parent="2">
          <mxGeometry x="85.5" y="52" width="114.5" height="58" as="geometry" />
        </mxCell>
        <mxCell id="51_Ou17uXI36368K1XmT-46" style="edgeStyle=orthogonalEdgeStyle;rounded=0;orthogonalLoop=1;jettySize=auto;html=1;exitX=0.5;exitY=1;exitDx=0;exitDy=0;entryX=0.5;entryY=0;entryDx=0;entryDy=0;strokeWidth=2;" edge="1" parent="2" source="51_Ou17uXI36368K1XmT-43" target="51_Ou17uXI36368K1XmT-44">
          <mxGeometry relative="1" as="geometry" />
        </mxCell>
        <mxCell id="51_Ou17uXI36368K1XmT-43" value="Membuka&lt;br&gt;Aplikasi" style="verticalLabelPosition=middle;verticalAlign=middle;html=1;shape=trapezoid;perimeter=trapezoidPerimeter;whiteSpace=wrap;size=0.23;arcSize=10;flipV=1;labelPosition=center;align=center;strokeWidth=2;" vertex="1" parent="2">
          <mxGeometry x="82.75" y="152" width="120" height="60" as="geometry" />
        </mxCell>
        <mxCell id="51_Ou17uXI36368K1XmT-51" style="edgeStyle=orthogonalEdgeStyle;rounded=0;orthogonalLoop=1;jettySize=auto;html=1;entryX=0.5;entryY=0;entryDx=0;entryDy=0;strokeWidth=2;" edge="1" parent="2" source="51_Ou17uXI36368K1XmT-44" target="51_Ou17uXI36368K1XmT-47">
          <mxGeometry relative="1" as="geometry" />
        </mxCell>
        <mxCell id="51_Ou17uXI36368K1XmT-44" value="Login" style="verticalLabelPosition=middle;verticalAlign=middle;html=1;shape=trapezoid;perimeter=trapezoidPerimeter;whiteSpace=wrap;size=0.23;arcSize=10;flipV=1;labelPosition=center;align=center;strokeWidth=2;" vertex="1" parent="2">
          <mxGeometry x="82.75" y="255" width="120" height="60" as="geometry" />
        </mxCell>
        <mxCell id="51_Ou17uXI36368K1XmT-47" value="Input&lt;br&gt;Username&lt;br&gt;dan&lt;br&gt;Password" style="shape=parallelogram;html=1;strokeWidth=2;perimeter=parallelogramPerimeter;whiteSpace=wrap;rounded=1;arcSize=12;size=0.23;" vertex="1" parent="2">
          <mxGeometry x="66.38" y="352" width="152.75" height="62" as="geometry" />
        </mxCell>
        <mxCell id="3" value="SISTEM" style="swimlane;whiteSpace=wrap" parent="1" vertex="1">
          <mxGeometry x="489.5" y="128" width="300.5" height="570" as="geometry" />
        </mxCell>
        <mxCell id="51_Ou17uXI36368K1XmT-52" value="Data&lt;br&gt;Valid?" style="strokeWidth=2;html=1;shape=mxgraph.flowchart.decision;whiteSpace=wrap;" vertex="1" parent="3">
          <mxGeometry x="90.38" y="333" width="119.75" height="100" as="geometry" />
        </mxCell>
      </root>
    </mxGraphModel>
  </diagram>
  <diagram name="diagram" id="8GnF-f7cxdJwrH7ixD_Y">
    <mxGraphModel dx="1232" dy="577" grid="1" gridSize="10" guides="1" tooltips="1" connect="1" arrows="1" fold="1" page="1" pageScale="1" pageWidth="1169" pageHeight="826" background="none" math="0" shadow="0">
      <root>
        <mxCell id="fuZHSi7bi3qW4TIPJkWA-0" />
        <mxCell id="fuZHSi7bi3qW4TIPJkWA-1" parent="fuZHSi7bi3qW4TIPJkWA-0" />
        <mxCell id="fuZHSi7bi3qW4TIPJkWA-2" value="ADMIN" style="swimlane;whiteSpace=wrap" vertex="1" parent="fuZHSi7bi3qW4TIPJkWA-1">
          <mxGeometry x="170" y="128" width="320" height="1432" as="geometry" />
        </mxCell>
        <mxCell id="EF4f-QNhXmiJLOMeKjgm-72" style="edgeStyle=orthogonalEdgeStyle;rounded=0;orthogonalLoop=1;jettySize=auto;html=1;entryX=0.5;entryY=0;entryDx=0;entryDy=0;strokeWidth=2;" edge="1" parent="fuZHSi7bi3qW4TIPJkWA-2" source="fuZHSi7bi3qW4TIPJkWA-4" target="fuZHSi7bi3qW4TIPJkWA-6">
          <mxGeometry relative="1" as="geometry" />
        </mxCell>
        <mxCell id="fuZHSi7bi3qW4TIPJkWA-4" value="Mulai" style="strokeWidth=2;html=1;shape=mxgraph.flowchart.terminator;whiteSpace=wrap;" vertex="1" parent="fuZHSi7bi3qW4TIPJkWA-2">
          <mxGeometry x="70.5" y="52" width="144.5" height="58" as="geometry" />
        </mxCell>
        <mxCell id="EF4f-QNhXmiJLOMeKjgm-19" value="" style="edgeStyle=orthogonalEdgeStyle;rounded=0;orthogonalLoop=1;jettySize=auto;html=1;strokeWidth=2;" edge="1" parent="fuZHSi7bi3qW4TIPJkWA-2" source="fuZHSi7bi3qW4TIPJkWA-6" target="EF4f-QNhXmiJLOMeKjgm-8">
          <mxGeometry relative="1" as="geometry" />
        </mxCell>
        <mxCell id="fuZHSi7bi3qW4TIPJkWA-6" value="Membuka&lt;br&gt;Aplikasi" style="verticalLabelPosition=middle;verticalAlign=middle;html=1;shape=trapezoid;perimeter=trapezoidPerimeter;whiteSpace=wrap;size=0.23;arcSize=10;flipV=1;labelPosition=center;align=center;strokeWidth=2;" vertex="1" parent="fuZHSi7bi3qW4TIPJkWA-2">
          <mxGeometry x="63.69" y="162" width="158.12" height="78" as="geometry" />
        </mxCell>
        <mxCell id="fuZHSi7bi3qW4TIPJkWA-9" value="Input&lt;br&gt;Username&lt;br&gt;dan&lt;br&gt;Password" style="shape=parallelogram;html=1;strokeWidth=2;perimeter=parallelogramPerimeter;whiteSpace=wrap;rounded=1;arcSize=12;size=0.23;" vertex="1" parent="fuZHSi7bi3qW4TIPJkWA-2">
          <mxGeometry x="54.599999999999994" y="412" width="176.31" height="78" as="geometry" />
        </mxCell>
        <mxCell id="EF4f-QNhXmiJLOMeKjgm-49" style="edgeStyle=orthogonalEdgeStyle;rounded=0;orthogonalLoop=1;jettySize=auto;html=1;entryX=0.5;entryY=0;entryDx=0;entryDy=0;strokeWidth=2;" edge="1" parent="fuZHSi7bi3qW4TIPJkWA-2" source="EF4f-QNhXmiJLOMeKjgm-5" target="EF4f-QNhXmiJLOMeKjgm-11">
          <mxGeometry relative="1" as="geometry" />
        </mxCell>
        <mxCell id="EF4f-QNhXmiJLOMeKjgm-5" value="Pilih&lt;br&gt;Pendapatan&lt;br&gt;atau Pengeluaran" style="verticalLabelPosition=middle;verticalAlign=middle;html=1;shape=trapezoid;perimeter=trapezoidPerimeter;whiteSpace=wrap;size=0.23;arcSize=10;flipV=1;labelPosition=center;align=center;strokeWidth=2;" vertex="1" parent="fuZHSi7bi3qW4TIPJkWA-2">
          <mxGeometry x="60.05" y="682" width="165.41" height="78" as="geometry" />
        </mxCell>
        <mxCell id="EF4f-QNhXmiJLOMeKjgm-20" value="" style="edgeStyle=orthogonalEdgeStyle;rounded=0;orthogonalLoop=1;jettySize=auto;html=1;strokeWidth=2;" edge="1" parent="fuZHSi7bi3qW4TIPJkWA-2" source="EF4f-QNhXmiJLOMeKjgm-8" target="fuZHSi7bi3qW4TIPJkWA-9">
          <mxGeometry relative="1" as="geometry" />
        </mxCell>
        <mxCell id="EF4f-QNhXmiJLOMeKjgm-8" value="Login" style="verticalLabelPosition=middle;verticalAlign=middle;html=1;shape=trapezoid;perimeter=trapezoidPerimeter;whiteSpace=wrap;size=0.23;arcSize=10;flipV=1;labelPosition=center;align=center;strokeWidth=2;" vertex="1" parent="fuZHSi7bi3qW4TIPJkWA-2">
          <mxGeometry x="63.69" y="285" width="158.12" height="78" as="geometry" />
        </mxCell>
        <mxCell id="EF4f-QNhXmiJLOMeKjgm-41" style="edgeStyle=orthogonalEdgeStyle;rounded=0;orthogonalLoop=1;jettySize=auto;html=1;strokeWidth=2;" edge="1" parent="fuZHSi7bi3qW4TIPJkWA-2" source="EF4f-QNhXmiJLOMeKjgm-9" target="EF4f-QNhXmiJLOMeKjgm-5">
          <mxGeometry relative="1" as="geometry" />
        </mxCell>
        <mxCell id="EF4f-QNhXmiJLOMeKjgm-9" value="Pilih&lt;br style=&quot;border-color: var(--border-color);&quot;&gt;Menu&lt;br style=&quot;border-color: var(--border-color);&quot;&gt;Transaksi" style="verticalLabelPosition=middle;verticalAlign=middle;html=1;shape=trapezoid;perimeter=trapezoidPerimeter;whiteSpace=wrap;size=0.23;arcSize=10;flipV=1;labelPosition=center;align=center;strokeWidth=2;" vertex="1" parent="fuZHSi7bi3qW4TIPJkWA-2">
          <mxGeometry x="60.05" y="547" width="165.41" height="78" as="geometry" />
        </mxCell>
        <mxCell id="EF4f-QNhXmiJLOMeKjgm-58" style="edgeStyle=orthogonalEdgeStyle;rounded=0;orthogonalLoop=1;jettySize=auto;html=1;entryX=0.5;entryY=0;entryDx=0;entryDy=0;strokeWidth=2;" edge="1" parent="fuZHSi7bi3qW4TIPJkWA-2" source="EF4f-QNhXmiJLOMeKjgm-11" target="EF4f-QNhXmiJLOMeKjgm-56">
          <mxGeometry relative="1" as="geometry" />
        </mxCell>
        <mxCell id="EF4f-QNhXmiJLOMeKjgm-11" value="Masukan &lt;br&gt;Pendapatan&lt;br&gt;atau &lt;br&gt;pengeluaran" style="shape=parallelogram;html=1;strokeWidth=2;perimeter=parallelogramPerimeter;whiteSpace=wrap;rounded=1;arcSize=12;size=0.23;" vertex="1" parent="fuZHSi7bi3qW4TIPJkWA-2">
          <mxGeometry x="57.75" y="812" width="170" height="78" as="geometry" />
        </mxCell>
        <mxCell id="EF4f-QNhXmiJLOMeKjgm-59" style="edgeStyle=orthogonalEdgeStyle;rounded=0;orthogonalLoop=1;jettySize=auto;html=1;strokeWidth=2;" edge="1" parent="fuZHSi7bi3qW4TIPJkWA-2" source="EF4f-QNhXmiJLOMeKjgm-56" target="EF4f-QNhXmiJLOMeKjgm-57">
          <mxGeometry relative="1" as="geometry" />
        </mxCell>
        <mxCell id="EF4f-QNhXmiJLOMeKjgm-56" value="Pilih Menu Laporan" style="verticalLabelPosition=middle;verticalAlign=middle;html=1;shape=trapezoid;perimeter=trapezoidPerimeter;whiteSpace=wrap;size=0.23;arcSize=10;flipV=1;labelPosition=center;align=center;strokeWidth=2;" vertex="1" parent="fuZHSi7bi3qW4TIPJkWA-2">
          <mxGeometry x="60.05000000000001" y="957" width="165.41" height="78" as="geometry" />
        </mxCell>
        <mxCell id="EF4f-QNhXmiJLOMeKjgm-57" value="Cetak Hasil Laporan" style="verticalLabelPosition=middle;verticalAlign=middle;html=1;shape=trapezoid;perimeter=trapezoidPerimeter;whiteSpace=wrap;size=0.23;arcSize=10;flipV=1;labelPosition=center;align=center;strokeWidth=2;" vertex="1" parent="fuZHSi7bi3qW4TIPJkWA-2">
          <mxGeometry x="60.050000000000004" y="1082" width="165.41" height="78" as="geometry" />
        </mxCell>
        <mxCell id="EF4f-QNhXmiJLOMeKjgm-74" style="edgeStyle=orthogonalEdgeStyle;rounded=0;orthogonalLoop=1;jettySize=auto;html=1;entryX=0.5;entryY=0;entryDx=0;entryDy=0;entryPerimeter=0;strokeWidth=2;" edge="1" parent="fuZHSi7bi3qW4TIPJkWA-2" source="EF4f-QNhXmiJLOMeKjgm-67" target="EF4f-QNhXmiJLOMeKjgm-73">
          <mxGeometry relative="1" as="geometry" />
        </mxCell>
        <mxCell id="EF4f-QNhXmiJLOMeKjgm-67" value="Log Out" style="verticalLabelPosition=middle;verticalAlign=middle;html=1;shape=trapezoid;perimeter=trapezoidPerimeter;whiteSpace=wrap;size=0.23;arcSize=10;flipV=1;labelPosition=center;align=center;strokeWidth=2;" vertex="1" parent="fuZHSi7bi3qW4TIPJkWA-2">
          <mxGeometry x="63.69" y="1212" width="158.12" height="78" as="geometry" />
        </mxCell>
        <mxCell id="EF4f-QNhXmiJLOMeKjgm-73" value="Selesai" style="strokeWidth=2;html=1;shape=mxgraph.flowchart.terminator;whiteSpace=wrap;" vertex="1" parent="fuZHSi7bi3qW4TIPJkWA-2">
          <mxGeometry x="70.5" y="1342" width="144.5" height="58" as="geometry" />
        </mxCell>
        <mxCell id="fuZHSi7bi3qW4TIPJkWA-10" value="SISTEM" style="swimlane;whiteSpace=wrap" vertex="1" parent="fuZHSi7bi3qW4TIPJkWA-1">
          <mxGeometry x="489.5" y="128" width="310.5" height="1432" as="geometry" />
        </mxCell>
        <mxCell id="EF4f-QNhXmiJLOMeKjgm-23" style="edgeStyle=orthogonalEdgeStyle;rounded=0;orthogonalLoop=1;jettySize=auto;html=1;exitX=0.5;exitY=1;exitDx=0;exitDy=0;exitPerimeter=0;entryX=0.5;entryY=0;entryDx=0;entryDy=0;strokeWidth=2;" edge="1" parent="fuZHSi7bi3qW4TIPJkWA-10" source="fuZHSi7bi3qW4TIPJkWA-11" target="EF4f-QNhXmiJLOMeKjgm-0">
          <mxGeometry relative="1" as="geometry" />
        </mxCell>
        <mxCell id="fuZHSi7bi3qW4TIPJkWA-11" value="Data&lt;br&gt;Valid?" style="strokeWidth=2;html=1;shape=mxgraph.flowchart.decision;whiteSpace=wrap;" vertex="1" parent="fuZHSi7bi3qW4TIPJkWA-10">
          <mxGeometry x="137.55" y="401" width="119.75" height="100" as="geometry" />
        </mxCell>
        <mxCell id="EF4f-QNhXmiJLOMeKjgm-25" value="" style="edgeStyle=orthogonalEdgeStyle;rounded=0;orthogonalLoop=1;jettySize=auto;html=1;" edge="1" parent="fuZHSi7bi3qW4TIPJkWA-10" source="EF4f-QNhXmiJLOMeKjgm-0" target="fuZHSi7bi3qW4TIPJkWA-11">
          <mxGeometry relative="1" as="geometry" />
        </mxCell>
        <mxCell id="EF4f-QNhXmiJLOMeKjgm-0" value="Menampilkan&amp;nbsp;&lt;br&gt;Halaman&lt;br&gt;Dashboard&lt;br&gt;Admin" style="rounded=1;whiteSpace=wrap;html=1;absoluteArcSize=1;arcSize=14;strokeWidth=2;" vertex="1" parent="fuZHSi7bi3qW4TIPJkWA-10">
          <mxGeometry x="131.38" y="542" width="132.09" height="88" as="geometry" />
        </mxCell>
        <mxCell id="EF4f-QNhXmiJLOMeKjgm-26" value="YA" style="text;html=1;align=center;verticalAlign=middle;resizable=0;points=[];autosize=1;strokeColor=none;fillColor=none;strokeWidth=1;fontStyle=1;spacing=2;" vertex="1" parent="fuZHSi7bi3qW4TIPJkWA-10">
          <mxGeometry x="193.5" y="506" width="40" height="30" as="geometry" />
        </mxCell>
        <mxCell id="EF4f-QNhXmiJLOMeKjgm-27" value="TIDAK" style="text;html=1;align=center;verticalAlign=middle;resizable=0;points=[];autosize=1;strokeColor=none;fillColor=none;strokeWidth=1;fontStyle=1;spacing=2;" vertex="1" parent="fuZHSi7bi3qW4TIPJkWA-10">
          <mxGeometry x="128.37999999999994" y="296" width="60" height="30" as="geometry" />
        </mxCell>
        <mxCell id="EF4f-QNhXmiJLOMeKjgm-35" value="" style="endArrow=none;html=1;rounded=0;exitX=0.5;exitY=0;exitDx=0;exitDy=0;exitPerimeter=0;strokeWidth=2;" edge="1" parent="fuZHSi7bi3qW4TIPJkWA-10" source="fuZHSi7bi3qW4TIPJkWA-11">
          <mxGeometry width="50" height="50" relative="1" as="geometry">
            <mxPoint x="180.5" y="342" as="sourcePoint" />
            <mxPoint x="197.5" y="322" as="targetPoint" />
          </mxGeometry>
        </mxCell>
        <mxCell id="EF4f-QNhXmiJLOMeKjgm-36" value="" style="endArrow=classic;html=1;rounded=0;entryX=1;entryY=0.5;entryDx=0;entryDy=0;strokeWidth=2;" edge="1" parent="fuZHSi7bi3qW4TIPJkWA-10" target="EF4f-QNhXmiJLOMeKjgm-8">
          <mxGeometry width="50" height="50" relative="1" as="geometry">
            <mxPoint x="198.5" y="322" as="sourcePoint" />
            <mxPoint x="-113.37379999999996" y="324" as="targetPoint" />
          </mxGeometry>
        </mxCell>
        <mxCell id="EF4f-QNhXmiJLOMeKjgm-61" style="edgeStyle=orthogonalEdgeStyle;rounded=0;orthogonalLoop=1;jettySize=auto;html=1;entryX=0.5;entryY=0;entryDx=0;entryDy=0;strokeWidth=2;" edge="1" parent="fuZHSi7bi3qW4TIPJkWA-10" source="EF4f-QNhXmiJLOMeKjgm-52" target="EF4f-QNhXmiJLOMeKjgm-54">
          <mxGeometry relative="1" as="geometry" />
        </mxCell>
        <mxCell id="EF4f-QNhXmiJLOMeKjgm-52" value="Data&lt;br&gt;Berhasil&lt;br&gt;Ditambahkan" style="rounded=1;whiteSpace=wrap;html=1;absoluteArcSize=1;arcSize=14;strokeWidth=2;" vertex="1" parent="fuZHSi7bi3qW4TIPJkWA-10">
          <mxGeometry x="131.38" y="807" width="132.09" height="88" as="geometry" />
        </mxCell>
        <mxCell id="EF4f-QNhXmiJLOMeKjgm-54" value="Kembali Ke Tampilan Menu Pendapatan&lt;br&gt;atau&lt;br&gt;Pengeluaran" style="rounded=1;whiteSpace=wrap;html=1;absoluteArcSize=1;arcSize=14;strokeWidth=2;" vertex="1" parent="fuZHSi7bi3qW4TIPJkWA-10">
          <mxGeometry x="131.38" y="952" width="132.09" height="88" as="geometry" />
        </mxCell>
        <mxCell id="EF4f-QNhXmiJLOMeKjgm-60" value="Laporan&lt;br&gt;Berhasil&lt;br&gt;Dicetak" style="rounded=1;whiteSpace=wrap;html=1;absoluteArcSize=1;arcSize=14;strokeWidth=2;" vertex="1" parent="fuZHSi7bi3qW4TIPJkWA-10">
          <mxGeometry x="128.38" y="1082" width="132.09" height="88" as="geometry" />
        </mxCell>
        <mxCell id="EF4f-QNhXmiJLOMeKjgm-22" style="edgeStyle=orthogonalEdgeStyle;rounded=0;orthogonalLoop=1;jettySize=auto;html=1;entryX=0;entryY=0.5;entryDx=0;entryDy=0;entryPerimeter=0;strokeWidth=2;" edge="1" parent="fuZHSi7bi3qW4TIPJkWA-1" source="fuZHSi7bi3qW4TIPJkWA-9" target="fuZHSi7bi3qW4TIPJkWA-11">
          <mxGeometry relative="1" as="geometry" />
        </mxCell>
        <mxCell id="EF4f-QNhXmiJLOMeKjgm-40" style="edgeStyle=orthogonalEdgeStyle;rounded=0;orthogonalLoop=1;jettySize=auto;html=1;entryX=1;entryY=0.5;entryDx=0;entryDy=0;strokeWidth=2;" edge="1" parent="fuZHSi7bi3qW4TIPJkWA-1" source="EF4f-QNhXmiJLOMeKjgm-0" target="EF4f-QNhXmiJLOMeKjgm-9">
          <mxGeometry relative="1" as="geometry" />
        </mxCell>
        <mxCell id="EF4f-QNhXmiJLOMeKjgm-53" style="edgeStyle=orthogonalEdgeStyle;rounded=0;orthogonalLoop=1;jettySize=auto;html=1;entryX=0;entryY=0.5;entryDx=0;entryDy=0;strokeWidth=2;" edge="1" parent="fuZHSi7bi3qW4TIPJkWA-1" source="EF4f-QNhXmiJLOMeKjgm-11" target="EF4f-QNhXmiJLOMeKjgm-52">
          <mxGeometry relative="1" as="geometry" />
        </mxCell>
        <mxCell id="EF4f-QNhXmiJLOMeKjgm-62" style="edgeStyle=orthogonalEdgeStyle;rounded=0;orthogonalLoop=1;jettySize=auto;html=1;entryX=1;entryY=0.5;entryDx=0;entryDy=0;strokeWidth=2;" edge="1" parent="fuZHSi7bi3qW4TIPJkWA-1" source="EF4f-QNhXmiJLOMeKjgm-54" target="EF4f-QNhXmiJLOMeKjgm-56">
          <mxGeometry relative="1" as="geometry" />
        </mxCell>
        <mxCell id="EF4f-QNhXmiJLOMeKjgm-69" style="edgeStyle=orthogonalEdgeStyle;rounded=0;orthogonalLoop=1;jettySize=auto;html=1;entryX=0.001;entryY=0.432;entryDx=0;entryDy=0;entryPerimeter=0;strokeWidth=2;" edge="1" parent="fuZHSi7bi3qW4TIPJkWA-1" source="EF4f-QNhXmiJLOMeKjgm-57" target="EF4f-QNhXmiJLOMeKjgm-60">
          <mxGeometry relative="1" as="geometry" />
        </mxCell>
        <mxCell id="EF4f-QNhXmiJLOMeKjgm-70" value="" style="endArrow=none;html=1;rounded=0;strokeWidth=2;entryX=0.5;entryY=1;entryDx=0;entryDy=0;" edge="1" parent="fuZHSi7bi3qW4TIPJkWA-1" target="EF4f-QNhXmiJLOMeKjgm-60">
          <mxGeometry width="50" height="50" relative="1" as="geometry">
            <mxPoint x="684" y="1380" as="sourcePoint" />
            <mxPoint x="520" y="1260" as="targetPoint" />
          </mxGeometry>
        </mxCell>
        <mxCell id="EF4f-QNhXmiJLOMeKjgm-71" value="" style="endArrow=classic;html=1;rounded=0;strokeWidth=2;" edge="1" parent="fuZHSi7bi3qW4TIPJkWA-1" target="EF4f-QNhXmiJLOMeKjgm-67">
          <mxGeometry width="50" height="50" relative="1" as="geometry">
            <mxPoint x="685" y="1379" as="sourcePoint" />
            <mxPoint x="370" y="1380" as="targetPoint" />
          </mxGeometry>
        </mxCell>
      </root>
    </mxGraphModel>
  </diagram>
</mxfile>
